<?xml version="1.0" ?><svg enable-background="new 0 0 500 500" id="Layer_1" version="1.1" viewBox="0 0 500 500" xml:space="preserve" xmlns="http://www.w3.org/2000/svg" xmlns:xlink="http://www.w3.org/1999/xlink"><g><g><path d="M393.502,164.186l-60.045,88.796c-3.425,5.065-2.716,11.858,1.682,16.106l64.761,62.564    c0,0-71.047-12.549-117.859-67.932S393.502,164.186,393.502,164.186z" fill="#2666CE"/><g><path d="M161.25,125.801c0,0-46.284,7.064-62.243,0s-0.478,26.718,14.763,31.851L161.25,125.801z" fill="#2666CE"/><path d="M150.505,366.63c0,0-31.992-4.883-43.024,0c-11.032,4.883-0.33-18.468,10.205-22.016L150.505,366.63z" fill="#2666CE"/><path d="M293.16,258.022c15.532-19.366,63.04-76.076,100.343-93.837c4.569-2.175,5.752-8.146,2.401-11.938     c-30.275-34.257-75.589-56.025-126.24-56.025c-79.459,0-180.274,58.657-204.839,126.856c-6.18-8.849-16.825-19.296-33.972-23.003     c-31.82-6.88,8.6,34.4,0,65.36c-8.6,30.96-22.36,57.62-0.86,51.6c11.403-3.193,25.709-16.063,34.963-32.451     c24.786,68.048,125.386,126.503,204.708,126.503c55.761,0,105.055-26.381,134.934-66.766c3.454-4.669,0.948-11.308-4.698-12.672     c-47.735-11.528-90.352-47.174-105.776-61.261C290.59,267.163,290.166,261.755,293.16,258.022z" fill="#4384EC"/><path d="M64.807,223.079c0,0-3.334,14.883-3.127,30.577c0,0-8.289-37.634-14.918-47.433     C46.762,206.223,59.025,212.858,64.807,223.079z" fill="#2666CE"/></g><circle cx="260.417" cy="179.094" fill="#FFFFFF" r="10.527"/></g><g><path d="M476.999,258.673c-1.399-2.716-1.399-5.941,0-8.657l4.597-8.925c0.948-1.84-1.003-3.847-2.859-2.929    c-4.521,2.234-10.062,5.918-14.681,9.207c-6.582-9.285-19.898-20.082-35.265-20.082c-21.9,0-39.653,21.089-39.653,30.157    s17.753,30.157,39.653,30.157c17.856,0,32.951-14.579,37.919-24.421c3.987,2.746,8.345,5.528,12.028,7.348    c1.856,0.917,3.807-1.089,2.859-2.929L476.999,258.673z" fill="#FECC5D"/><circle cx="413.607" cy="249.498" fill="#FFFFFF" r="3.016"/><path d="M391.49,264.67c5.515,9.97,20.132,22.931,37.302,22.931c17.67,0,32.63-14.274,37.754-24.11    c0.45-5.327-0.661-8.367-0.661-8.367C435.865,302.422,391.526,264.701,391.49,264.67z" fill="#F1BB4C"/></g></g></svg>